HIERARCHY
ROOT Hips
{
  OFFSET 0 0 0
  CHANNELS 6 Xposition Yposition Zposition Zrotation Xrotation Yrotation
  JOINT Spine
  {
    OFFSET 0 10 0
    CHANNELS 3 Zrotation Xrotation Yrotation
    JOINT Neck
    {
      OFFSET 0 30 0
      CHANNELS 3 Zrotation Xrotation Yrotation
      JOINT Head
      {
        OFFSET 0 8 0
        CHANNELS 3 Zrotation Xrotation Yrotation
        End Site
        {
          OFFSET 0 10 0
        }
      }
    }
    JOINT LeftArm
    {
      OFFSET 15 30 0
      CHANNELS 3 Zrotation Xrotation Yrotation
      JOINT LeftForeArm
      {
        OFFSET 25 0 0
        CHANNELS 3 Zrotation Xrotation Yrotation
        JOINT LeftHand
        {
          OFFSET 25 0 0
          CHANNELS 3 Zrotation Xrotation Yrotation
          End Site
          {
            OFFSET 10 0 0
          }
        }
      }
    }
    JOINT RightArm
    {
      OFFSET -15 30 0
      CHANNELS 3 Zrotation Xrotation Yrotation
      JOINT RightForeArm
      {
        OFFSET -25 0 0
        CHANNELS 3 Zrotation Xrotation Yrotation
        JOINT RightHand
        {
          OFFSET -25 0 0
          CHANNELS 3 Zrotation Xrotation Yrotation
          End Site
          {
            OFFSET -10 0 0
          }
        }
      }
    }
  }
  JOINT LeftUpLeg
  {
    OFFSET 10 -10 0
    CHANNELS 3 Zrotation Xrotation Yrotation
    JOINT LeftLeg
    {
      OFFSET 0 -35 0
      CHANNELS 3 Zrotation Xrotation Yrotation
      JOINT LeftFoot
      {
        OFFSET 0 -40 0
        CHANNELS 3 Zrotation Xrotation Yrotation
        End Site
        {
          OFFSET 0 0 15
        }
      }
    }
  }
  JOINT RightUpLeg
  {
    OFFSET -10 -10 0
    CHANNELS 3 Zrotation Xrotation Yrotation
    JOINT RightLeg
    {
      OFFSET 0 -35 0
      CHANNELS 3 Zrotation Xrotation Yrotation
      JOINT RightFoot
      {
        OFFSET 0 -40 0
        CHANNELS 3 Zrotation Xrotation Yrotation
        End Site
        {
          OFFSET 0 0 15
        }
      }
    }
  }
}
MOTION
Frames:	15
Frame Time:	0.0416667
-45.5141 84.8719 -84.2806 -4.85098 -0.750112 91.6825 2.64746 5.25514 0.459738 -6.35789 -15.5101 -5.53018 7.44146 15.6206 -6.54365 -62.8214 42.4422 -39.5735 33.8263 -26.0969 -74.6262 9.47274e-06 -33.1762 1.73108e-05 64.4416 38.7913 28.0831 -34.1284 -27.1371 76.3525 3.68344e-06 5.33889 -1.21268e-05 5.24215 -11.9942 -5.58835 0.129755 27.1364 -0.513074 3.93401 -20.9941 11.0087 -6.15113 5.94535 -6.40018 0.00312732 -0.000374878 1.61583e-06 -2.64598 -8.28433 -17.5422 
-45.8864 84.9178 -84.3314 -5.17286 -0.406766 91.432 2.14487 5.63781 0.503222 -5.91248 -15.6237 -5.3219 7.06089 14.4291 -6.26009 -57.2344 38.3383 -47.9696 32.4832 -22.4032 -68.4328 1.04792e-05 -35.8765 1.78814e-05 60.7009 35.4128 35.4765 -33.2539 -24.3835 71.7634 3.8395e-06 6.07214 -1.21423e-05 4.88754 -12.3664 -5.3171 0.1269 26.7923 -0.511506 3.77556 -20.8896 10.6267 -6.61349 5.32062 -6.18989 0.00312732 -0.000374878 1.61583e-06 -2.63238 -8.25482 -17.5094 
-46.3035 84.9789 -84.5114 -5.80828 -0.347587 91.5574 2.29207 6.41328 0.0586824 -5.16514 -15.4125 -4.74672 6.58841 9.79743 -5.29146 -53.187 34.9607 -54.1478 31.5372 -20.3784 -64.9529 1.15258e-05 -38.5017 1.85142e-05 58.6253 31.5253 41.6452 -32.3617 -22.1425 67.9874 3.97768e-06 6.71968 -1.21577e-05 4.76989 -13.4876 -4.79914 0.123473 26.7935 -0.511587 3.53606 -20.2483 10.2669 -6.83776 4.25235 -6.3976 0.00312732 -0.000374878 1.61583e-06 -2.45162 -7.67339 -17.5081 
-46.5758 85.0161 -84.5565 -6.72001 -0.58206 91.1923 2.59997 6.71639 0.0467117 -4.99319 -15.6331 -4.40322 7.11681 6.84306 -4.7038 -50.5983 31.8314 -58.4141 30.5341 -18.4973 -61.6373 1.2249e-05 -40.2113 1.89729e-05 57.5299 28.3219 46.9799 -31.4483 -20.2002 64.6402 4.00344e-06 6.84025 -1.21608e-05 4.96877 -14.8318 -4.71933 0.121966 27.0041 -0.512678 3.59161 -20.2495 10.4199 -6.65558 2.8575 -6.15667 0.00312732 -0.000374878 1.61583e-06 -2.28741 -7.15126 -17.4947 
-46.8247 85.053 -84.6751 -6.93859 -0.691842 91.061 2.86466 7.52347 0.0862958 -5.29055 -16.2226 -4.479 7.56737 6.23792 -4.80046 -47.5674 28.509 -63.0977 28.6522 -15.5141 -56.1505 1.36327e-05 -43.2558 1.98942e-05 55.4474 24.9908 52.3712 -29.8976 -17.4197 59.6939 4.12134e-06 7.3911 -1.21754e-05 4.91455 -15.3403 -5.07302 0.121217 27.1851 -0.513685 3.66822 -20.1774 10.6678 -6.6199 2.36537 -6.06019 0.00312732 -0.000374878 1.61583e-06 -2.21328 -6.89216 -17.5417 
-47.1171 85.0787 -84.7454 -7.41174 -0.560575 90.9864 2.47583 8.34567 -0.298201 -4.58659 -17.0844 -4.32512 6.92952 5.71624 -4.37769 -44.9236 25.0608 -67.273 26.3779 -12.562 -50.3099 1.47748e-05 -45.5595 2.06936e-05 54.3884 22.1436 57.1267 -27.865 -14.4243 54.0508 3.95792e-06 6.62721 -1.21554e-05 4.87849 -16.0329 -4.39875 0.11867 27.076 -0.513384 3.42295 -19.8546 10.1266 -6.83813 1.6122 -6.0542 0.00312732 -0.000374878 1.61583e-06 -2.14067 -6.69114 -17.4624 
-47.3652 85.1061 -84.7815 -8.27608 -0.989487 90.8016 2.76695 9.07173 -0.204924 -4.41303 -18.4243 -4.37942 6.29365 5.61686 -4.43922 -43.9404 21.9957 -70.9356 24.4769 -10.4855 -45.8595 1.70361e-05 -49.6193 2.23643e-05 53.9106 19.3286 61.1006 -26.6927 -12.9359 51.082 4.22806e-06 7.88859 -1.21896e-05 5.35179 -17.3585 -4.25564 0.120643 27.3839 -0.51501 3.47513 -19.6365 10.3801 -6.41051 0.340019 -5.98874 0.00312732 -0.000374878 1.61583e-06 -2.00511 -6.29823 -17.3513 
-47.4973 85.1365 -84.8862 -9.16701 -1.31781 91.125 3.01052 9.4629 -0.648405 -4.61858 -18.9721 -4.57203 6.35169 5.46279 -4.47229 -43.6238 19.064 -74.7777 22.4957 -8.62072 -41.5044 1.66162e-05 -48.9122 2.20461e-05 51.9986 16.345 65.1033 -24.74 -10.7561 46.4552 4.16796e-06 7.60859 -1.21814e-05 5.49297 -18.6491 -4.72992 0.12124 27.5284 -0.515874 3.58059 -19.3402 10.8362 -6.11703 -0.662888 -6.4292 0.00312732 -0.000374878 1.61583e-06 -2.00176 -6.30751 -17.3098 
-47.466 85.1838 -84.8788 -9.52124 -1.28385 91.0497 2.71031 9.73117 -0.926891 -4.65161 -18.7025 -4.47352 5.88014 5.94725 -4.2793 -43.3367 16.146 -77.6879 19.8633 -6.52236 -36.0516 1.56367e-05 -47.1818 2.13176e-05 50.8565 14.1661 68.9506 -22.2481 -8.40462 40.9793 4.3478e-06 8.44531 -1.22066e-05 5.36006 -18.9188 -5.05596 0.119103 27.3813 -0.515341 3.73132 -19.2025 11.3503 -6.1638 -0.958145 -6.3997 0.00312732 -0.000374878 1.61583e-06 -2.07061 -6.55933 -17.2556 
-47.3901 85.2072 -84.8495 -9.69416 -1.30339 90.7935 2.381 10.1468 -1.16923 -4.50432 -18.4472 -4.47786 5.70842 6.32621 -4.1625 -42.665 13.3508 -79.7242 17.482 -4.94179 -31.3533 1.54098e-05 -46.7641 2.11517e-05 51.1249 12.1775 72.5002 -19.5493 -6.29689 35.422 4.54195e-06 9.34459 -1.22366e-05 5.41639 -18.9963 -5.02924 0.118502 27.3681 -0.515381 3.79699 -19.1991 11.5431 -6.10411 -1.14716 -6.16403 0.00312732 -0.000374878 1.61583e-06 -2.08797 -6.59113 -17.3211 
-47.3109 85.1995 -84.8107 -9.96163 -1.32431 90.4651 2.04246 10.2489 -1.10908 -4.39734 -18.4565 -4.60618 5.60723 7.43854 -4.5256 -44.1723 11.4867 -81.9995 14.6028 -3.37412 -25.8922 1.44795e-05 -44.9813 2.04839e-05 54.2276 9.72347 76.3278 -15.9713 -4.07546 28.4629 5.25653e-06 12.6115 -1.23727e-05 5.48589 -19.1272 -5.11785 0.120917 27.3112 -0.515147 3.93389 -19.3031 11.882 -6.03451 -1.48695 -5.86993 0.00312732 -0.000374878 1.61583e-06 -2.05467 -6.46832 -17.3639 
-47.1558 85.2087 -84.7422 -9.99966 -1.35018 90.2685 1.72617 10.1647 -0.883778 -4.74773 -18.1045 -4.78085 6.20772 8.53981 -4.79032 -45.1522 10.6832 -83.2952 12.9866 -2.64173 -22.907 1.37135e-05 -43.4248 1.99497e-05 57.46 7.9755 78.7729 -13.3122 -2.78058 23.5051 6.15395e-06 16.5973 -1.25991e-05 5.53159 -18.9256 -5.50288 0.131747 27.2398 -0.512932 4.09702 -19.7121 12.1152 -5.92033 -1.41917 -5.67256 0.00312732 -0.000374878 1.61583e-06 -2.14591 -6.77231 -17.3443 
-46.9403 85.206 -84.706 -9.79186 -1.48249 90.8613 1.78507 9.81926 -1.44612 -4.83798 -17.6035 -4.93466 6.13541 9.24684 -4.73934 -43.5623 10.9282 -82.982 13.0023 -2.6486 -22.9355 1.40636e-05 -44.1464 2.0192e-05 55.965 8.13077 78.5097 -13.0755 -2.67967 23.0698 6.01192e-06 15.9764 -1.25593e-05 5.63632 -18.7439 -5.50471 0.132998 27.3352 -0.511007 3.97929 -19.52 11.8859 -5.74275 -0.876368 -6.22576 0.00312732 -0.000374878 1.61583e-06 -2.23811 -7.08784 -17.3072 
-46.7885 85.199 -84.6104 -9.37089 -1.43498 91.1619 1.75376 9.66008 -1.37607 -5.04833 -17.1358 -5.03334 6.16497 9.69973 -5.02716 -41.2557 12.0343 -81.7841 14.026 -3.09923 -24.8233 1.55594e-05 -47.0401 2.12609e-05 55.533 8.6824 77.4207 -13.5782 -2.89783 23.9941 6.00671e-06 15.9536 -1.25579e-05 5.59832 -18.2257 -5.58484 0.1332 27.3596 -0.508715 3.95307 -19.4143 11.8686 -5.71919 -0.27809 -6.46508 0.00312732 -0.000374878 1.61583e-06 -2.20341 -6.94077 -17.3915 
-46.6876 85.2134 -84.4612 -9.1604 -1.33496 90.9106 1.67893 9.40421 -1.11163 -4.67821 -16.9842 -4.80442 5.36934 10.3858 -4.92263 -36.0088 14.2887 -77.4237 18.1044 -5.32849 -32.5637 2.00328e-05 -54.1231 2.47233e-05 51.7807 9.70031 75.1386 -15.6333 -3.89491 27.8236 4.65759e-06 9.87799 -1.22559e-05 5.62994 -17.6533 -5.7256 0.129896 27.0403 -0.504812 4.01461 -19.3253 12.0966 -5.71581 -0.0358155 -6.18277 0.00312732 -0.000374878 1.61583e-06 -2.21421 -6.95301 -17.4477 
